<?xml version="1.0" encoding="UTF-8"?>
<!DOCTYPE svg PUBLIC "-//W3C//DTD SVG 1.1//EN" "http://www.w3.org/Graphics/SVG/1.1/DTD/svg11.dtd">
<!-- Creator: CorelDRAW 2020 (64-Bit) -->
<svg xmlns="http://www.w3.org/2000/svg" xml:space="preserve" width="185.475mm" height="200.163mm" version="1.1" style="shape-rendering:geometricPrecision; text-rendering:geometricPrecision; image-rendering:optimizeQuality; fill-rule:evenodd; clip-rule:evenodd"
viewBox="0 0 3167.37 3418.19"
 xmlns:xlink="http://www.w3.org/1999/xlink"
 xmlns:xodm="http://www.corel.com/coreldraw/odm/2003">
 <defs>
  <style type="text/css">
   <![CDATA[
    .fil0 {fill:#00A650;fill-rule:nonzero}
    .fil2 {fill:#171D7D;fill-rule:nonzero}
    .fil1 {fill:#F8DA24;fill-rule:nonzero}
   ]]>
  </style>
 </defs>
 <g id="Capa_x0020_1">
  <metadata id="CorelCorpID_0Corel-Layer"/>
  <g id="_2690049831552">
   <g>
    <path class="fil0" d="M2434.75 264.29l-614.2 -2.83 1.64 519.95c-154.26,-34.99 -578.61,-199.67 -585.76,-441.33l0 -81.45 -54.79 -0.3c-882.66,231.98 -235.85,934.62 6.11,910.21 -545.71,217.39 -233.32,688.2 -3.87,733.17 318.94,62.39 514.44,286.03 526.05,524.71 260.72,-16.53 688.05,-374.03 117.33,-701.01 717.68,-305.09 471.85,-754.01 17.42,-940.28 408.27,-107.65 604.97,-281.41 590.08,-520.84l0 0zm-1197.58 930.16c-18.02,186.12 131.77,359.88 552.26,514.29 7.74,-224.09 -121.65,-410.51 -552.26,-514.29zm774.86 -859.73c48.54,0 88.15,38.27 88.15,85.17 0,46.9 -39.61,85.17 -88.15,85.17 -48.54,0 -88.3,-38.27 -88.3,-85.17 -0,-46.9 39.61,-85.17 88.3,-85.17z"/>
    <path class="fil1" d="M1291.97 1194.45c-18.16,186.12 131.77,359.88 552.26,514.29 7.74,-224.09 -121.65,-410.51 -552.26,-514.29l0 0zm204.14 -1194.45l173.91 0c112.86,0 204.73,83.23 205.03,184.93l1.79 596.63c-154.11,-34.99 -578.61,-199.67 -585.76,-441.33l0 -155.3c0.15,-101.7 92.32,-184.93 205.03,-184.93z"/>
   </g>
   <path class="fil2" d="M235.72 3406.13c-73.09,0 -128.27,-14.98 -165.55,-44.95 -37.28,-29.97 -55.92,-65.42 -55.92,-106.35 0,-19 4.2,-33.99 12.61,-44.95 8.41,-10.96 21.74,-16.45 40.02,-16.45 11.7,0 22.11,1.46 31.25,4.39 9.14,2.92 19,6.4 29.6,10.42 10.6,4.02 23.02,7.49 37.28,10.42 14.25,2.92 31.98,4.39 53.17,4.39 21.93,0 40.56,-0.55 55.91,-1.64 15.35,-1.1 29.42,-2.74 42.21,-4.93 12.79,-2.19 27.23,-5.12 43.31,-8.77 -5.85,-11.69 -18.64,-22.48 -38.37,-32.34 -19.73,-9.87 -43.31,-20.28 -70.72,-31.25 -27.41,-10.96 -55.55,-23.21 -84.42,-36.73 -28.87,-13.52 -55.91,-29.78 -81.13,-48.79 -25.22,-19 -45.68,-41.66 -61.4,-67.97 -15.71,-26.31 -23.57,-57.38 -23.57,-93.19 0,-34.35 10.23,-65.97 30.7,-94.84 20.47,-28.87 47.51,-54.82 81.13,-77.84 33.62,-23.02 69.62,-42.39 107.99,-58.11 38.37,-15.71 76.02,-27.77 112.93,-36.18 36.91,-8.41 68.89,-12.61 95.93,-12.61 26.31,0 47.14,4.93 62.49,14.8 15.35,9.87 26.31,22.66 32.89,38.37 6.58,15.71 9.87,32.71 9.87,50.98 0,18.27 -4.75,34.53 -14.25,48.79 -9.5,14.25 -24.49,23.21 -44.95,26.86 -54.09,10.23 -102.14,21.38 -144.17,33.44 -42.03,12.06 -74.92,24.12 -98.67,36.18 -23.75,12.06 -35.63,23.57 -35.63,34.53 0,11.69 8.77,22.84 26.31,33.44 17.54,10.6 40.02,21.38 67.43,32.34 27.41,10.96 56.46,23.21 87.16,36.73 30.7,13.52 59.75,29.78 87.16,48.79 27.41,19.01 49.89,41.3 67.43,66.88 17.54,25.58 26.31,56.28 26.31,92.09 0,33.62 -6.58,62.67 -19.73,87.16 -13.16,24.49 -33.26,44.58 -60.3,60.3 -27.04,15.71 -60.66,27.41 -100.86,35.08 -40.2,7.67 -87.34,11.51 -141.43,11.51zm583.26 1.1c-39.47,0 -74.19,-6.94 -104.15,-20.83 -29.97,-13.89 -53.36,-33.44 -70.17,-58.65 -16.81,-25.22 -25.22,-54.64 -25.22,-88.26 0,-38.01 6.4,-76.93 19.19,-116.76 12.79,-39.83 30.51,-77.84 53.17,-114.02 22.66,-36.18 48.61,-68.52 77.84,-97.03 29.24,-28.5 60.3,-50.98 93.19,-67.43 32.89,-16.45 65.78,-24.67 98.67,-24.67 30.7,0 56.64,10.05 77.84,30.15 21.2,20.1 31.79,48.79 31.79,86.06 0,12.43 -3.47,22.11 -10.42,29.05 -6.94,6.94 -15.17,11.51 -24.67,13.7 -45.32,8.04 -85.51,26.31 -120.6,54.82 -35.08,28.5 -62.67,62.31 -82.77,101.41 -20.1,39.1 -30.15,79.85 -30.15,122.24 0,10.23 0.73,19.55 2.19,27.96 1.46,8.41 4.02,18.82 7.67,31.25l-81.13 -124.99c18.27,12.43 34.35,20.83 48.24,25.22 13.89,4.39 29.6,6.58 47.14,6.58 34.35,0 66.88,-21.74 97.58,-65.23 30.7,-43.49 52.26,-107.26 64.68,-191.31 2.92,-19 11.88,-33.62 26.86,-43.85 14.98,-10.23 31.61,-15.35 49.88,-15.35 31.43,0 58.47,7.86 81.13,23.57 22.66,15.71 38.74,34.9 48.24,57.56 14.62,31.43 27.59,60.66 38.92,87.71 11.33,27.04 24.49,53.36 39.47,78.94 14.98,25.58 35.27,52.26 60.85,80.03 10.96,11.69 16.63,26.86 16.99,45.5 0.37,18.64 -3.29,37.46 -10.96,56.46 -7.67,19 -19,34.9 -33.99,47.69 -14.98,12.79 -33.07,19.19 -54.27,19.19 -13.89,0 -25.22,-2.56 -33.99,-7.67 -8.77,-5.12 -16.08,-10.96 -21.93,-17.54 -16.08,-19.73 -30.33,-38.55 -42.76,-56.46 -12.43,-17.91 -24.12,-36.55 -35.08,-55.92 -10.96,-19.37 -21.38,-40.75 -31.25,-64.14 -9.87,-23.39 -20.28,-49.7 -31.25,-78.94l65.78 -6.58c-16.08,55.55 -35.45,101.96 -58.11,139.24 -22.66,37.28 -47.14,67.06 -73.46,89.35 -26.31,22.29 -53.9,38.19 -82.78,47.69 -28.87,9.5 -58.29,14.25 -88.26,14.25zm789.37 1.1c-13.89,0 -29.6,-2.19 -47.14,-6.58 -17.54,-4.39 -35.08,-13.34 -52.62,-26.86 -17.54,-13.52 -33.62,-33.44 -48.24,-59.75 -14.62,-26.31 -26.31,-61.03 -35.08,-104.15 -8.77,-43.12 -13.16,-97.21 -13.16,-162.26 0,-53.36 1.28,-103.6 3.84,-150.75 2.56,-47.14 6.4,-92.64 11.51,-136.5 5.12,-43.85 11.33,-86.61 18.64,-128.27 4.39,-24.85 13.16,-42.76 26.31,-53.72 13.16,-10.96 31.43,-16.45 54.82,-16.45 32.89,0 58.29,11.69 76.2,35.08 17.91,23.39 26.86,61.03 26.86,112.93 0,22.66 -1.28,46.59 -3.84,71.81 -2.56,25.22 -5.3,52.26 -8.22,81.13 -2.92,28.87 -5.66,60.3 -8.22,94.29 -2.56,33.99 -3.84,71.45 -3.84,112.38 0,36.54 0.91,65.05 2.74,85.51 1.83,20.47 4.2,35.45 7.13,44.95 2.92,9.5 6.4,15.35 10.42,17.54 4.02,2.19 8.22,3.29 12.61,3.29 4.39,0 8.41,-0.18 12.06,-0.55 3.65,-0.37 6.94,-0.73 9.87,-1.1 2.92,-0.37 5.85,-0.55 8.77,-0.55 23.39,0 39.29,6.94 47.69,20.83 8.41,13.89 12.61,31.43 12.61,52.63 0,35.81 -11.33,63.95 -33.99,84.42 -22.66,20.47 -51.9,30.7 -87.71,30.7zm473.63 -1.1c-53.36,0 -99.77,-10.05 -139.24,-30.15 -39.47,-20.1 -71.99,-46.96 -97.57,-80.58 -25.58,-33.62 -44.77,-71.08 -57.56,-112.38 -12.79,-41.3 -19.19,-83.14 -19.19,-125.53 0,-37.28 2.74,-70.17 8.22,-98.67 5.48,-28.5 13.34,-55.55 23.57,-81.13 5.85,-16.08 14.8,-28.5 26.86,-37.28 12.06,-8.77 28.69,-13.16 49.88,-13.16 29.24,0 54.09,9.5 74.55,28.51 20.47,19 30.7,43.49 30.7,73.46 0,10.96 -1.28,21.56 -3.84,31.79 -2.56,10.23 -5.3,20.83 -8.22,31.79 -2.92,10.96 -5.66,22.48 -8.22,34.53 -2.56,12.06 -3.84,24.67 -3.84,37.82 0,33.62 4.75,62.31 14.25,86.06 9.5,23.75 23.39,41.66 41.66,53.72 18.27,12.06 40.57,18.09 66.88,18.09 24.12,0 44.04,-10.05 59.75,-30.15 15.71,-20.1 27.41,-45.68 35.08,-76.74 7.67,-31.06 11.51,-63.04 11.51,-95.93 0,-14.62 -0.37,-27.77 -1.1,-39.47 -0.73,-11.69 -1.46,-22.84 -2.19,-33.44 -0.73,-10.6 -1.1,-21.74 -1.1,-33.44 0,-27.04 5.3,-48.06 15.9,-63.04 10.6,-14.99 30.51,-22.48 59.75,-22.48 24.12,0 44.59,5.66 61.4,16.99 16.81,11.33 29.6,28.87 38.37,52.63 8.77,23.75 13.16,54.63 13.16,92.64 0,92.09 -12.43,168.84 -37.28,230.23 -24.85,61.4 -59.02,107.63 -102.51,138.69 -43.49,31.06 -93.37,46.59 -149.65,46.59zm669.87 -1.1c-42.39,0 -81.31,-8.41 -116.76,-25.22 -35.45,-16.81 -65.96,-39.83 -91.54,-69.07 -25.58,-29.24 -45.32,-62.86 -59.2,-100.87 -13.89,-38.01 -20.83,-78.21 -20.83,-120.6 0,-54.82 11.51,-102.69 34.53,-143.62 23.02,-40.93 55.37,-72.72 97.03,-95.38 41.66,-22.66 89.9,-33.62 144.72,-32.89 40.93,0 76.02,5.66 105.25,16.99 29.24,11.33 51.89,28.14 67.97,50.43 16.08,22.29 24.12,50.25 24.12,83.87 0,18.27 -3.84,33.07 -11.51,44.4 -7.67,11.33 -16.99,16.99 -27.96,16.99 -7.31,0 -14.07,-1.1 -20.28,-3.29 -6.21,-2.19 -12.97,-4.57 -20.28,-7.13 -7.31,-2.56 -16.26,-4.93 -26.86,-7.13 -10.6,-2.19 -24.3,-3.29 -41.11,-3.29 -37.28,0 -67.24,6.94 -89.9,20.83 -22.66,13.89 -33.99,33.62 -33.99,59.2 0,18.27 4.39,36.91 13.16,55.91 8.77,19 19.55,35.08 32.34,48.24 12.79,13.16 24.67,19.73 35.63,19.73 35.82,0 67.61,-22.11 95.38,-66.33 27.77,-44.22 49.88,-108.17 66.33,-191.86 16.45,-83.69 24.67,-184.74 24.67,-303.14 0,-28.51 6.94,-50.62 20.83,-66.33 13.89,-15.71 32.89,-23.57 57.01,-23.57 38.74,0 69.25,15.53 91.54,46.59 22.29,31.06 31.61,76.56 27.96,136.5 -2.92,46.05 -8.04,86.25 -15.35,120.6 -7.31,34.35 -14.07,67.61 -20.28,99.77 -6.21,32.16 -9.32,67.97 -9.32,107.44 0,43.85 2.74,78.39 8.22,103.6 5.48,25.22 12.43,44.22 20.83,57.01 8.41,12.79 16.63,22.66 24.67,29.6 8.04,6.94 14.8,14.07 20.28,21.38 5.48,7.31 8.22,18.27 8.22,32.89 0,20.47 -4.39,38.19 -13.16,53.17 -8.77,14.98 -20.83,26.5 -36.18,34.53 -15.35,8.04 -33.62,12.06 -54.82,12.06 -22.66,0 -43.67,-5.48 -63.04,-16.45 -19.37,-10.96 -36.36,-25.76 -50.98,-44.4 -14.62,-18.64 -25.76,-40.02 -33.44,-64.14 -7.67,-24.12 -11.51,-49.34 -11.51,-75.65l106.35 -31.79c-17.54,54.82 -41.3,98.31 -71.26,130.47 -29.97,32.16 -61.76,55.18 -95.38,69.07 -33.62,13.89 -64.32,20.83 -92.09,20.83z"/>
  </g>
 </g>
</svg>
